<mxfile host="app.diagrams.net" agent="Mozilla/5.0 (Windows NT 10.0; Win64; x64) AppleWebKit/537.36 (KHTML, like Gecko) Chrome/131.0.0.0 Safari/537.36" version="25.0.3">
  <diagram name="Side-1" id="qL7F2kTzr6LD_rK6iTyP">
    <mxGraphModel grid="1" page="1" gridSize="10" guides="1" tooltips="1" connect="1" arrows="1" fold="1" pageScale="1" pageWidth="827" pageHeight="1169" math="0" shadow="0">
      <root>
        <mxCell id="0" />
        <mxCell id="1" parent="0" />
        <mxCell id="6piz4bbjtIVCneInxh1F-1" value="Solcelle" style="shape=umlLifeline;perimeter=lifelinePerimeter;whiteSpace=wrap;html=1;container=1;dropTarget=0;collapsible=0;recursiveResize=0;outlineConnect=0;portConstraint=eastwest;newEdgeStyle={&quot;curved&quot;:0,&quot;rounded&quot;:0};" vertex="1" parent="1">
          <mxGeometry x="70" y="80" width="100" height="600" as="geometry" />
        </mxCell>
        <mxCell id="6piz4bbjtIVCneInxh1F-2" value="Sequence diagram - Use case 4" style="shape=umlFrame;whiteSpace=wrap;html=1;pointerEvents=0;width=190;height=30;" vertex="1" parent="1">
          <mxGeometry x="40" y="20" width="780" height="510" as="geometry" />
        </mxCell>
        <mxCell id="6piz4bbjtIVCneInxh1F-3" value="Strøm sensor" style="shape=umlLifeline;perimeter=lifelinePerimeter;whiteSpace=wrap;html=1;container=1;dropTarget=0;collapsible=0;recursiveResize=0;outlineConnect=0;portConstraint=eastwest;newEdgeStyle={&quot;curved&quot;:0,&quot;rounded&quot;:0};" vertex="1" parent="1">
          <mxGeometry x="270" y="80" width="100" height="600" as="geometry" />
        </mxCell>
        <mxCell id="6piz4bbjtIVCneInxh1F-4" value="" style="html=1;points=[[0,0,0,0,5],[0,1,0,0,-5],[1,0,0,0,5],[1,1,0,0,-5]];perimeter=orthogonalPerimeter;outlineConnect=0;targetShapes=umlLifeline;portConstraint=eastwest;newEdgeStyle={&quot;curved&quot;:0,&quot;rounded&quot;:0};" vertex="1" parent="6piz4bbjtIVCneInxh1F-3">
          <mxGeometry x="45" y="80" width="10" height="150" as="geometry" />
        </mxCell>
        <mxCell id="6piz4bbjtIVCneInxh1F-5" value="" style="html=1;points=[[0,0,0,0,5],[0,1,0,0,-5],[1,0,0,0,5],[1,1,0,0,-5]];perimeter=orthogonalPerimeter;outlineConnect=0;targetShapes=umlLifeline;portConstraint=eastwest;newEdgeStyle={&quot;curved&quot;:0,&quot;rounded&quot;:0};" vertex="1" parent="6piz4bbjtIVCneInxh1F-3">
          <mxGeometry x="50" y="140" width="10" height="40" as="geometry" />
        </mxCell>
        <mxCell id="6piz4bbjtIVCneInxh1F-6" value="&lt;code&gt;&lt;span style=&quot;font-family: Helvetica;&quot;&gt;konverter til signal&lt;/span&gt;&lt;/code&gt;" style="html=1;align=left;spacingLeft=2;endArrow=block;rounded=0;edgeStyle=orthogonalEdgeStyle;curved=0;rounded=0;" edge="1" parent="6piz4bbjtIVCneInxh1F-3" target="6piz4bbjtIVCneInxh1F-5">
          <mxGeometry x="0.1765" y="5" relative="1" as="geometry">
            <mxPoint x="55" y="120" as="sourcePoint" />
            <Array as="points">
              <mxPoint x="85" y="150" />
            </Array>
            <mxPoint as="offset" />
          </mxGeometry>
        </mxCell>
        <mxCell id="6piz4bbjtIVCneInxh1F-7" value="ESP" style="shape=umlLifeline;perimeter=lifelinePerimeter;whiteSpace=wrap;html=1;container=1;dropTarget=0;collapsible=0;recursiveResize=0;outlineConnect=0;portConstraint=eastwest;newEdgeStyle={&quot;curved&quot;:0,&quot;rounded&quot;:0};" vertex="1" parent="1">
          <mxGeometry x="670" y="80" width="100" height="600" as="geometry" />
        </mxCell>
        <mxCell id="6piz4bbjtIVCneInxh1F-8" value="" style="html=1;points=[[0,0,0,0,5],[0,1,0,0,-5],[1,0,0,0,5],[1,1,0,0,-5]];perimeter=orthogonalPerimeter;outlineConnect=0;targetShapes=umlLifeline;portConstraint=eastwest;newEdgeStyle={&quot;curved&quot;:0,&quot;rounded&quot;:0};" vertex="1" parent="6piz4bbjtIVCneInxh1F-7">
          <mxGeometry x="45" y="320" width="10" height="100" as="geometry" />
        </mxCell>
        <mxCell id="6piz4bbjtIVCneInxh1F-9" value="" style="html=1;points=[[0,0,0,0,5],[0,1,0,0,-5],[1,0,0,0,5],[1,1,0,0,-5]];perimeter=orthogonalPerimeter;outlineConnect=0;targetShapes=umlLifeline;portConstraint=eastwest;newEdgeStyle={&quot;curved&quot;:0,&quot;rounded&quot;:0};" vertex="1" parent="6piz4bbjtIVCneInxh1F-7">
          <mxGeometry x="50" y="360" width="10" height="40" as="geometry" />
        </mxCell>
        <mxCell id="6piz4bbjtIVCneInxh1F-10" value="&lt;code&gt;&lt;span class=&quot;hljs-type&quot;&gt;void&lt;/span&gt;&lt;span class=&quot;hljs-function&quot;&gt; &lt;br&gt;&lt;/span&gt;&lt;span class=&quot;hljs-title&quot;&gt;showData&lt;/span&gt;&lt;/code&gt;" style="html=1;align=left;spacingLeft=2;endArrow=block;rounded=0;edgeStyle=orthogonalEdgeStyle;curved=0;rounded=0;" edge="1" parent="6piz4bbjtIVCneInxh1F-7" target="6piz4bbjtIVCneInxh1F-9">
          <mxGeometry x="0.0118" relative="1" as="geometry">
            <mxPoint x="55" y="340" as="sourcePoint" />
            <Array as="points">
              <mxPoint x="85" y="370" />
            </Array>
            <mxPoint as="offset" />
          </mxGeometry>
        </mxCell>
        <mxCell id="6piz4bbjtIVCneInxh1F-11" value="" style="html=1;points=[[0,0,0,0,5],[0,1,0,0,-5],[1,0,0,0,5],[1,1,0,0,-5]];perimeter=orthogonalPerimeter;outlineConnect=0;targetShapes=umlLifeline;portConstraint=eastwest;newEdgeStyle={&quot;curved&quot;:0,&quot;rounded&quot;:0};" vertex="1" parent="1">
          <mxGeometry x="115" y="160" width="10" height="40" as="geometry" />
        </mxCell>
        <mxCell id="6piz4bbjtIVCneInxh1F-12" value="&lt;code&gt;&lt;span class=&quot;hljs-type&quot;&gt;int&lt;/span&gt;&lt;span class=&quot;hljs-function&quot;&gt; &lt;/span&gt;&lt;span class=&quot;hljs-title&quot;&gt;readADC&lt;/span&gt;&lt;span class=&quot;hljs-params&quot;&gt;()&lt;/span&gt;&lt;/code&gt;" style="html=1;verticalAlign=bottom;endArrow=block;curved=0;rounded=0;" edge="1" parent="1" target="6piz4bbjtIVCneInxh1F-4">
          <mxGeometry relative="1" as="geometry">
            <mxPoint x="125" y="170" as="sourcePoint" />
            <mxPoint x="310" y="170" as="targetPoint" />
          </mxGeometry>
        </mxCell>
        <mxCell id="6piz4bbjtIVCneInxh1F-13" value="overfør elektricitet" style="html=1;verticalAlign=bottom;endArrow=block;curved=0;rounded=0;" edge="1" parent="1" target="6piz4bbjtIVCneInxh1F-17">
          <mxGeometry width="80" relative="1" as="geometry">
            <mxPoint x="125" y="190" as="sourcePoint" />
            <mxPoint x="500" y="190" as="targetPoint" />
            <mxPoint as="offset" />
          </mxGeometry>
        </mxCell>
        <mxCell id="6piz4bbjtIVCneInxh1F-14" value="overfør signal" style="html=1;verticalAlign=bottom;endArrow=block;curved=0;rounded=0;" edge="1" parent="1">
          <mxGeometry width="80" relative="1" as="geometry">
            <mxPoint x="325" y="305" as="sourcePoint" />
            <mxPoint x="515" y="305" as="targetPoint" />
          </mxGeometry>
        </mxCell>
        <mxCell id="6piz4bbjtIVCneInxh1F-15" value="send behandlet data" style="html=1;verticalAlign=bottom;endArrow=block;curved=0;rounded=0;entryX=0;entryY=0;entryDx=0;entryDy=5;" edge="1" parent="1" source="6piz4bbjtIVCneInxh1F-17" target="6piz4bbjtIVCneInxh1F-8">
          <mxGeometry relative="1" as="geometry">
            <mxPoint x="445" y="405" as="sourcePoint" />
          </mxGeometry>
        </mxCell>
        <mxCell id="6piz4bbjtIVCneInxh1F-16" value="&lt;div&gt;Raspberry-pi&lt;span style=&quot;color: rgba(0, 0, 0, 0); font-family: monospace; font-size: 0px; text-align: start; text-wrap-mode: nowrap; background-color: initial;&quot;&gt;%3CmxGraphModel%3E%3Croot%3E%3CmxCell%20id%3D%220%22%2F%3E%3CmxCell%20id%3D%221%22%20parent%3D%220%22%2F%3E%3CmxCell%20id%3D%222%22%20value%3D%22ESP32%22%20style%3D%22shape%3DumlLifeline%3Bperimeter%3DlifelinePerimeter%3BwhiteSpace%3Dwrap%3Bhtml%3D1%3Bcontainer%3D1%3BdropTarget%3D0%3Bcollapsible%3D0%3BrecursiveResize%3D0%3BoutlineConnect%3D0%3BportConstraint%3Deastwest%3BnewEdgeStyle%3D%7B%26quot%3Bcurved%26quot%3B%3A0%2C%26quot%3Brounded%26quot%3B%3A0%7D%3B%22%20vertex%3D%221%22%20parent%3D%221%22%3E%3CmxGeometry%20x%3D%22620%22%20y%3D%2280%22%20width%3D%22100%22%20height%3D%22600%22%20as%3D%22geometry%22%2F%3E%3C%2FmxCell%3E%3CmxCell%20id%3D%223%22%20value%3D%22%22%20style%3D%22html%3D1%3Bpoints%3D%5B%5B0%2C0%2C0%2C0%2C5%5D%2C%5B0%2C1%2C0%2C0%2C-5%5D%2C%5B1%2C0%2C0%2C0%2C5%5D%2C%5B1%2C1%2C0%2C0%2C-5%5D%5D%3Bperimeter%3DorthogonalPerimeter%3BoutlineConnect%3D0%3BtargetShapes%3DumlLifeline%3BportConstraint%3Deastwest%3BnewEdgeStyle%3D%7B%26quot%3Bcurved%26quot%3B%3A0%2C%26quot%3Brounded%26quot%3B%3A0%7D%3B%22%20vertex%3D%221%22%20parent%3D%222%22%3E%3CmxGeometry%20x%3D%2245%22%20y%3D%22380%22%20width%3D%2210%22%20height%3D%22100%22%20as%3D%22geometry%22%2F%3E%3C%2FmxCell%3E%3CmxCell%20id%3D%224%22%20value%3D%22%22%20style%3D%22html%3D1%3Bpoints%3D%5B%5B0%2C0%2C0%2C0%2C5%5D%2C%5B0%2C1%2C0%2C0%2C-5%5D%2C%5B1%2C0%2C0%2C0%2C5%5D%2C%5B1%2C1%2C0%2C0%2C-5%5D%5D%3Bperimeter%3DorthogonalPerimeter%3BoutlineConnect%3D0%3BtargetShapes%3DumlLifeline%3BportConstraint%3Deastwest%3BnewEdgeStyle%3D%7B%26quot%3Bcurved%26quot%3B%3A0%2C%26quot%3Brounded%26quot%3B%3A0%7D%3B%22%20vertex%3D%221%22%20parent%3D%222%22%3E%3CmxGeometry%20x%3D%2250%22%20y%3D%22420%22%20width%3D%2210%22%20height%3D%2240%22%20as%3D%22geometry%22%2F%3E%3C%2FmxCell%3E%3CmxCell%20id%3D%225%22%20value%3D%22vis%20data%26lt%3Bdiv%26gt%3Bp%C3%A5%20display%26lt%3B%2Fdiv%26gt%3B%22%20style%3D%22html%3D1%3Balign%3Dleft%3BspacingLeft%3D2%3BendArrow%3Dblock%3Brounded%3D0%3BedgeStyle%3DorthogonalEdgeStyle%3Bcurved%3D0%3Brounded%3D0%3B%22%20edge%3D%221%22%20parent%3D%222%22%20target%3D%224%22%3E%3CmxGeometry%20relative%3D%221%22%20as%3D%22geometry%22%3E%3CmxPoint%20x%3D%2255%22%20y%3D%22400%22%20as%3D%22sourcePoint%22%2F%3E%3CArray%20as%3D%22points%22%3E%3CmxPoint%20x%3D%2285%22%20y%3D%22430%22%2F%3E%3C%2FArray%3E%3C%2FmxGeometry%3E%3C%2FmxCell%3E%3C%2Froot%3E%3C%2FmxGraphModel%3E&lt;/span&gt;&lt;/div&gt;" style="shape=umlLifeline;perimeter=lifelinePerimeter;whiteSpace=wrap;html=1;container=1;dropTarget=0;collapsible=0;recursiveResize=0;outlineConnect=0;portConstraint=eastwest;newEdgeStyle={&quot;curved&quot;:0,&quot;rounded&quot;:0};" vertex="1" parent="1">
          <mxGeometry x="470" y="80" width="100" height="600" as="geometry" />
        </mxCell>
        <mxCell id="6piz4bbjtIVCneInxh1F-17" value="" style="html=1;points=[[0,0,0,0,5],[0,1,0,0,-5],[1,0,0,0,5],[1,1,0,0,-5]];perimeter=orthogonalPerimeter;outlineConnect=0;targetShapes=umlLifeline;portConstraint=eastwest;newEdgeStyle={&quot;curved&quot;:0,&quot;rounded&quot;:0};" vertex="1" parent="6piz4bbjtIVCneInxh1F-16">
          <mxGeometry x="45" y="100" width="10" height="230" as="geometry" />
        </mxCell>
        <mxCell id="6piz4bbjtIVCneInxh1F-18" value="" style="html=1;points=[[0,0,0,0,5],[0,1,0,0,-5],[1,0,0,0,5],[1,1,0,0,-5]];perimeter=orthogonalPerimeter;outlineConnect=0;targetShapes=umlLifeline;portConstraint=eastwest;newEdgeStyle={&quot;curved&quot;:0,&quot;rounded&quot;:0};" vertex="1" parent="6piz4bbjtIVCneInxh1F-16">
          <mxGeometry x="50" y="256" width="10" height="40" as="geometry" />
        </mxCell>
        <mxCell id="6piz4bbjtIVCneInxh1F-19" value="&lt;span style=&quot;font-family: monospace;&quot; class=&quot;hljs-type&quot;&gt;float&amp;nbsp;&lt;/span&gt;&lt;span style=&quot;font-family: monospace;&quot; class=&quot;hljs-title&quot;&gt;calculatePanelVoltage()&lt;/span&gt;" style="html=1;align=left;spacingLeft=2;endArrow=block;rounded=0;edgeStyle=orthogonalEdgeStyle;curved=0;rounded=0;" edge="1" parent="6piz4bbjtIVCneInxh1F-16" target="6piz4bbjtIVCneInxh1F-18">
          <mxGeometry x="0.0118" relative="1" as="geometry">
            <mxPoint x="55" y="236" as="sourcePoint" />
            <Array as="points">
              <mxPoint x="85" y="266" />
            </Array>
            <mxPoint as="offset" />
          </mxGeometry>
        </mxCell>
        <mxCell id="6piz4bbjtIVCneInxh1F-20" value="loop" style="shape=umlFrame;whiteSpace=wrap;html=1;pointerEvents=0;" vertex="1" parent="1">
          <mxGeometry x="50" y="140" width="760" height="380" as="geometry" />
        </mxCell>
      </root>
    </mxGraphModel>
  </diagram>
</mxfile>
